<svg width="62" height="70" viewBox="0 0 62 70" fill="none" xmlns="http://www.w3.org/2000/svg">
<path d="M27.1775 1.0076C29.5045 -0.335868 32.3714 -0.335868 34.6984 1.0076L58.1154 14.5275C60.4424 15.8709 61.8759 18.3538 61.8759 21.0407V48.0804C61.8759 50.7674 60.4424 53.2502 58.1154 54.5937L34.6984 68.1135C32.3714 69.457 29.5045 69.457 27.1775 68.1135L3.76043 54.5937C1.43347 53.2502 0 50.7674 0 48.0804V21.0407C0 18.3538 1.43347 15.8709 3.76043 14.5275L27.1775 1.0076Z" fill="#5C8ABD"/>
<path d="M27.177 7.3411C29.504 5.99763 32.3709 5.99763 34.6979 7.3411L52.6301 17.6943C54.9571 19.0378 56.3906 21.5206 56.3906 24.2075V44.9139C56.3906 47.6009 54.9571 50.0837 52.6301 51.4272L34.6979 61.7803C32.3709 63.1238 29.504 63.1238 27.177 61.7803L9.2448 51.4272C6.91784 50.0837 5.48438 47.6009 5.48438 44.9139V24.2075C5.48438 21.5206 6.91784 19.0378 9.2448 17.6943L27.177 7.3411Z" fill="white"/>
<path d="M28.4639 13.8784C28.4639 12.5667 29.5272 11.5034 30.8389 11.5034C32.1506 11.5034 33.2139 12.5667 33.2139 13.8784V55.2431C33.2139 56.5548 32.1506 57.6181 30.8389 57.6181C29.5272 57.6181 28.4639 56.5548 28.4639 55.2431V13.8784Z" fill="#F7DA10"/>
<path d="M37.9639 20.4097C37.9639 19.098 39.0272 18.0347 40.3389 18.0347C41.6506 18.0347 42.7139 19.098 42.7139 20.4097V39.4097C42.7139 40.7214 41.6506 41.7847 40.3389 41.7847C39.0272 41.7847 37.9639 40.7214 37.9639 39.4097V20.4097Z" fill="#64C168"/>
<path d="M19.1621 31.6909C19.1621 30.3792 20.2254 29.3159 21.5371 29.3159C22.8488 29.3159 23.9121 30.3792 23.9121 31.6909V50.691C23.9121 52.0027 22.8488 53.066 21.5371 53.066C20.2254 53.066 19.1621 52.0027 19.1621 50.691V31.6909Z" fill="#E58227"/>
<path d="M47.2656 24.1699C47.2656 22.8582 48.329 21.7949 49.6406 21.7949C50.9523 21.7949 52.0156 22.8582 52.0156 24.1699V26.7429C52.0156 28.0545 50.9523 29.1179 49.6406 29.1179C48.329 29.1179 47.2656 28.0545 47.2656 26.7429V24.1699Z" fill="#964195"/>
<path d="M9.85938 44.3574C9.85938 43.0457 10.9227 41.9824 12.2344 41.9824C13.5461 41.9824 14.6094 43.0457 14.6094 44.3574V46.9304C14.6094 48.242 13.5461 49.3054 12.2344 49.3054C10.9227 49.3054 9.85938 48.242 9.85938 46.9304V44.3574Z" fill="#D10D3A"/>
<path d="M37.9639 47.9199C37.9639 46.6082 39.0272 45.5449 40.3389 45.5449C41.6506 45.5449 42.7139 46.6082 42.7139 47.9199V50.6908C42.7139 52.0024 41.6506 53.0658 40.3389 53.0658C39.0272 53.0658 37.9639 52.0024 37.9639 50.6908V47.9199Z" fill="#64C168"/>
<path d="M19.1621 20.4097C19.1621 19.098 20.2254 18.0347 21.5371 18.0347C22.8488 18.0347 23.9121 19.098 23.9121 20.4097V23.1805C23.9121 24.4922 22.8488 25.5555 21.5371 25.5555C20.2254 25.5555 19.1621 24.4922 19.1621 23.1805V20.4097Z" fill="#E58227"/>
<path d="M47.2656 34.6597C47.2656 33.348 48.329 32.2847 49.6406 32.2847C50.9523 32.2847 52.0156 33.348 52.0156 34.6597V46.9305C52.0156 48.2422 50.9523 49.3055 49.6406 49.3055C48.329 49.3055 47.2656 48.2422 47.2656 46.9305V34.6597Z" fill="#964195"/>
<path d="M9.85938 24.1699C9.85938 22.8582 10.9227 21.7949 12.2344 21.7949C13.5461 21.7949 14.6094 22.8582 14.6094 24.1699V36.4408C14.6094 37.7525 13.5461 38.8158 12.2344 38.8158C10.9227 38.8158 9.85938 37.7525 9.85938 36.4408V24.1699Z" fill="#D10D3A"/>
</svg>
